<svg id="Layer_1" data-name="Layer 1" xmlns="http://www.w3.org/2000/svg" viewBox="0 0 175.3 124.36"><defs><style>.cls-1{fill:#372f33;}.cls-2{fill:#010101;}</style></defs><title>logo-short</title><path class="cls-1" d="M109,39.41v70.46H97.33V17.57h9.1l57.2,71.89V17.7h11.7v92.17h-9.88Z" transform="translate(-0.03 0)"/><path class="cls-2" d="M.77,52.93a42,42,0,0,1-.64-4.88C.26,49.69.48,51.32.77,52.93Z" transform="translate(-0.03 0)"/><path class="cls-1" d="M44.68,0A44.69,44.69,0,0,0,0,44.67v1.72c0,.55.06,1.1.1,1.66s.07.83.11,1.24c.09.8.2,1.6.32,2.41l.21,1.23a3.3,3.3,0,0,0,.14.75c6.3,33.16,43.77,70.68,43.77,70.68S83,86.28,88.68,52.58c.08-.4.14-.79.2-1.19s.11-.82.16-1.24c.07-.61.14-1.22.19-1.83h0c0-.62.09-1.23.11-1.84a.89.89,0,0,0,0-.23V44.68A44.68,44.68,0,0,0,44.68,0Zm0,69.2A24.53,24.53,0,1,1,69.21,44.67h0A24.53,24.53,0,0,1,44.68,69.2Z" transform="translate(-0.03 0)"/><path class="cls-2" d="M89.32,46.47a29.78,29.78,0,0,1-.3,3.68C89.17,48.92,89.27,47.69,89.32,46.47Z" transform="translate(-0.03 0)"/></svg>