<?xml version="1.0" encoding="utf-8"?>
<!-- Generator: Adobe Illustrator 22.0.1, SVG Export Plug-In . SVG Version: 6.00 Build 0)  -->
<svg version="1.1" xmlns="http://www.w3.org/2000/svg" xmlns:xlink="http://www.w3.org/1999/xlink" x="0px" y="0px"
	 viewBox="0 0 437.5 265" style="enable-background:new 0 0 437.5 265;" xml:space="preserve">
<style type="text/css">
	.st0{fill:#F05D32;}
</style>
<g id="ONTARIO_OUTLINE">
	<path id="BOTTOM_OF_N" class="st0" d="M97,141.1V96.5l53,53v-73l19.5,16.7c0,0-1.1,6.7,1.1,8.9c2.2,2.2,4.5,21.2,4.5,21.2l3.3,14.5
		v7.8h1.1l1.1,12.3l15.6,20.1H213l11.2,6.7h12.3c0,0,4.5-3.3,6.7-3.3c0,0,8.9-5.6,11.2,2.2c0,0,3.3,4.5-6.7,7.8l-6.7,6.7l-1.1,4.5
		h-2.2l-3.3,5.6l-5.6,2.2l-2.2,4.5l-12.3,1.1l-4.5,2.2l-1.1,1.1l-4.5,1.1l-4.5,3.3h-2.2l-1.1,2.2h-2.2l-1.1,3.3v4.5h6.7
		c0,0,6.7,3.3-1.1,5.6c-7.8,2.2-11.2,5.6-11.2,5.6s-3.3,1.1-3.3,4.5h-12.3l-12.3,11.2l-4.5,2.2c0,0-4.5,2.2-3.3-2.2
		c1.1-4.5,2.2-11.2,7.8-15.6c5.6-4.5,5.6-5.6,5.6-5.6v-16.7l1.1-3.3v-7.8l-4.5-6.7c0,0-2.2-4.5,3.3-1.1c5.6,3.3,8.9,7.8,8.9,7.8
		l3.3,1.1h7.8V208c0,0-1.1-2.2,1.1-3.3c2.2-1.1-16.7-17.8-16.7-17.8l-37.9-3.3c0,0-7.8,0-8.9-8.9c-1.1-8.9-4.5-11.2-4.5-11.2
		s-4.5,1.1-2.2-3.3c2.2-4.5-14.5-4.5-14.5-4.5L97,141.1z"/>
</g>
<g id="type">
	<g>
		<path class="st0" d="M187.9,83v61h-10.7V83h-16.3V73h43.4V83H187.9z"/>
		<path class="st0" d="M251.6,126.8h-30.4l-7.9,17.3h-11.6l35.2-75.5l33.9,75.5h-11.7L251.6,126.8z M247.2,116.7l-10.5-24.2
			l-11,24.2H247.2z"/>
		<path class="st0" d="M303.7,113.7l22,30.3h-13.1l-20.3-29.1h-1.9V144h-10.7V73h12.6c9.4,0,16.2,1.8,20.3,5.3
			c4.6,3.9,6.9,9.1,6.9,15.6c0,5-1.4,9.4-4.3,13C312.3,110.4,308.5,112.7,303.7,113.7z M290.4,105.6h3.4c10.2,0,15.2-3.9,15.2-11.6
			c0-7.3-4.9-10.9-14.8-10.9h-3.8V105.6z"/>
		<path class="st0" d="M347.1,73V144h-10.7V73H347.1z"/>
		<path class="st0" d="M360.7,108.2c0-10,3.7-18.6,11-25.8c7.3-7.2,16.1-10.8,26.3-10.8c10.1,0,18.8,3.6,26,10.9
			c7.3,7.2,10.9,15.9,10.9,26.1c0,10.2-3.7,18.9-11,26c-7.3,7.1-16.2,10.7-26.6,10.7c-9.2,0-17.4-3.2-24.7-9.5
			C364.7,128.8,360.7,119.6,360.7,108.2z M371.5,108.3c0,7.9,2.6,14.3,7.9,19.4c5.2,5.1,11.3,7.6,18.2,7.6c7.5,0,13.7-2.6,18.9-7.7
			c5.1-5.2,7.7-11.6,7.7-19.1c0-7.6-2.5-13.9-7.6-19.1c-5-5.2-11.3-7.7-18.7-7.7c-7.4,0-13.6,2.6-18.7,7.7
			C374,94.5,371.5,100.8,371.5,108.3z"/>
	</g>
	<g>
		<path class="st0" d="M290.6,160.7c4.3,0,5.8,1.7,5.8,3.9c0,2.9-2.5,6.7-4.3,8.7c-1.3-0.2-1.8-0.8-1.8-1.7c0-2.2,3.3-6,3.3-8.3
			c0-1.1-0.7-1.7-3.1-1.7c-7,0-12.2,5.4-12.2,8.7c0,5.9,16.6,5.8,16.6,13.8c0,5.4-7.6,8.4-14.5,8.4c-6,0-11.6-2.3-11.6-7.1
			c0-4.1,4-5.3,7.1-5.3c-2,1.5-3,3.5-3,5.3c0,2.9,2.7,5.5,8.5,5.5c5,0,10.3-2,10.3-5.8c0-6.8-16.8-6.9-16.8-14
			C274.8,166.9,281,160.7,290.6,160.7z"/>
		<path class="st0" d="M317.2,179.5c0,0.4-3.7,5.4-3.7,8.1c0,0.9,0.5,1.6,1.8,1.6c2.3,0,6.5-2.3,9.2-6.4l0.7,0.4
			c-2.4,4.3-7.2,7.2-11.1,7.2c-2.9,0-3.9-1.3-3.9-2.9c0-0.6,0.2-1.3,0.4-2c-2,2.6-4.5,4.9-7.3,4.9c-2.5,0-4.2-1.9-4.2-4
			c0-3,3.2-9,4.9-9c0.4,0,1.4,0.3,2,0.8c-1.2,1.3-3.7,5.3-3.7,7.9c0,0.7,0.2,2.6,2,2.6c3.4,0,8-7.3,10.1-10.3
			C315.1,178.5,317.2,178.8,317.2,179.5z"/>
		<path class="st0" d="M335.1,189.2c0-0.7,3.5-6.3,3.5-9.1c0-0.9-0.4-1.5-1.4-1.5c-3.2,0-9.9,6.2-12.6,11.6c-1.1,0-3-0.4-3-0.8
			c0-0.6,3.8-7.1,3.8-10.5c0.4-0.4,1.5-0.8,2.5-0.8c1,0,1.5,0.4,1.5,1c0,0.7-0.6,2.5-1.4,4.5c3-3.4,7.7-7.5,11.7-7.5
			c2.3,0,3,1.4,3,3c0,2-1.1,4.5-1.7,5.6c2.3-3,5.4-6.1,9.2-6.1c2.3,0,3.2,1.2,3.2,2.5c0,2.1-2,4.9-2,6.6c0,0.7,0.4,1.3,1.7,1.3
			c3,0,5.7-3.6,7.4-6.2l0.7,0.6c-1.8,3.3-5.1,7.1-9.6,7.1c-2.6,0-3.7-1.3-3.7-2.9c0-1.9,1.7-4.1,1.7-5.6c0-1-0.8-1.4-1.6-1.4
			c-1.8,0-3.8,2.1-7.3,5.9c-1.2,1.3-1.9,2.6-2.7,3.7C337,190,335.1,189.8,335.1,189.2z"/>
		<path class="st0" d="M370.9,189.2c0-0.7,3.5-6.3,3.5-9.1c0-0.9-0.4-1.5-1.4-1.5c-3.2,0-9.9,6.2-12.6,11.6c-1.1,0-3-0.4-3-0.8
			c0-0.6,3.8-7.1,3.8-10.5c0.4-0.4,1.5-0.8,2.5-0.8c1,0,1.5,0.4,1.5,1c0,0.7-0.6,2.5-1.4,4.5c3-3.4,7.7-7.5,11.7-7.5
			c2.3,0,3,1.4,3,3c0,2-1.1,4.5-1.7,5.6c2.3-3,5.4-6.1,9.2-6.1c2.3,0,3.2,1.2,3.2,2.5c0,2.1-2,4.9-2,6.6c0,0.7,0.4,1.3,1.7,1.3
			c3,0,5.7-3.6,7.4-6.2l0.7,0.6c-1.8,3.3-5.1,7.1-9.6,7.1c-2.6,0-3.7-1.3-3.7-2.9c0-1.9,1.7-4.1,1.7-5.6c0-1-0.8-1.4-1.6-1.4
			c-1.8,0-3.8,2.1-7.3,5.9c-1.2,1.3-1.9,2.6-2.7,3.7C372.8,190,370.9,189.8,370.9,189.2z"/>
		<path class="st0" d="M398.2,185c-0.2,0.5-0.2,1-0.2,1.4c0,1.6,0.9,3.3,4.4,3.3c4.7,0,9.6-3.2,12.4-7l0.7,0.4
			c-3,4.7-8.7,7.8-14.2,7.8c-4.5,0-6.8-2-6.8-4.6c0-4.7,7.5-11.4,14.1-11.4c1.7,0,3.4,0.5,3.4,2.4
			C411.9,181.4,404.5,184.6,398.2,185z M398.5,184.3c3.9-1,11-3.8,11-7.2c0-0.6-0.2-0.9-1.2-0.9
			C404.8,176.2,399.9,180.5,398.5,184.3z"/>
		<path class="st0" d="M413.7,184.1c1-1.4,2.9-4.1,4.5-7.5c-0.3-0.2-0.6-0.6-0.6-0.9c0-1.6,1.7-2.7,2.3-2.7c0.8,0,0.8,0.7,0.8,0.9
			s-0.6,1.3-0.6,1.5c0,1.5,5.6,2.1,5.6,5.5c0,2.4-2.8,5-2.8,6.7c0,0.9,0.8,1.2,1.7,1.2c3.5,0,8-3.6,9.4-5.9l0.7,0.4
			c-2.1,3.4-6.9,6.9-11.6,6.9c-2.5,0-4-1-4-2.6c0-2.3,3-5.3,3-7.4c0-1.7-1.7-2.3-3.1-3c-1.7,3.1-3.8,6.2-4.9,7.6L413.7,184.1z"/>
	</g>
	<g>
		<path class="st0" d="M34.9,83.9c-7.4,0-13.6,2.6-18.7,7.8c-5.1,5.1-7.6,11.5-7.6,19c0,7.9,2.6,14.4,7.9,19.6
			c5.2,5.1,11.3,7.7,18.2,7.7c7.5,0,13.7-2.6,18.9-7.8c5.1-5.3,7.7-11.7,7.7-19.2c0-7.6-2.5-14.1-7.6-19.2
			C48.6,86.5,42.3,83.9,34.9,83.9z"/>
		<path class="st0" d="M137.8,65.7l-1.1-15.6c-4.5-1.1-2.2-5.6-2.2-5.6V27.8c0,0-32.3-1.1-33.5-1.1c-1.1,0-4.5-5.6-4.5-5.6
			c-0.2,0-0.4,0.1-0.7,0.1c-17.6,2.7-32.8-18-32.8-18L2.8,66.6v25.4c1.6-2.6,3.6-5,5.9-7.4C16,77.3,24.8,73.7,35,73.7
			c10.1,0,18.8,3.7,26,11C68.4,92,72,100.8,72,111c0,10.3-3.7,19.1-11,26.2c-7.3,7.2-16.2,10.8-26.6,10.8c-9.2,0-17.4-3.2-24.7-9.6
			c-2.8-2.5-5.1-5.2-6.9-8.2v16.4l1.2,0.5c0,0,3.3,2.2,10,2.2s8.9,4.5,8.9,4.5l4.5,1.1c0,0,3.3,0,6.7,3.3c3.3,3.3,4.5-1.1,4.5-1.1
			s7.8-1.1,15.6,3.3c7.8,4.5,7.8-5.6,7.8-5.6h2.2v-2.2c0,0,5.6,3.3,7.8-6.7c2.2-10,14.5,0,14.5,0V67.9l51.3,52.4V73.5h5.6
			L137.8,65.7z"/>
	</g>
</g>
</svg>
