<svg id="Layer_1" data-name="Layer 1" xmlns="http://www.w3.org/2000/svg" viewBox="0 0 1176.17 124.36"><defs><style>.cls-1{fill:#fff}.cls-2{isolation:isolate}</style></defs><path class="cls-1" d="M127 40.31v70.46h-11.7v-92.3h9.1l57.2 71.89V18.6h11.7v92.17h-9.88zM44.68.9A44.69 44.69 0 0 0 0 45.57v1.72c0 .55.06 1.1.1 1.66s.07.83.11 1.24c.09.8.2 1.6.32 2.41l.21 1.23a3.3 3.3 0 0 0 .14.75c6.3 33.16 43.77 70.68 43.77 70.68S83 87.18 88.66 53.47c.08-.4.14-.79.2-1.19S89 51.46 89 51c.07-.61.14-1.22.19-1.83 0-.62.09-1.23.11-1.84a.89.89 0 0 0 0-.23v-1.53A44.68 44.68 0 0 0 44.68.9zm0 69.2a24.53 24.53 0 1 1 24.53-24.53A24.53 24.53 0 0 1 44.68 70.1z" transform="translate(-.03 -.9)"/><g class="cls-2"><g class="cls-2"><path class="cls-1" d="M280.64 29.25h-31.85v81.9h-11.7v-81.9h-31.85v-10.4h75.4z" transform="translate(-.03 -.9)"/></g><g class="cls-2"><path class="cls-1" d="M313.27 18.85h9.88l37.7 92.3h-12.48l-10.92-27h-38.74l-10.79 27h-12.48zM334.85 75l-16.64-42.63L301.05 75zm38.35 36.15v-92.3h39.52A24.9 24.9 0 0 1 424 21.39a28.13 28.13 0 0 1 8.84 6.75 32.31 32.31 0 0 1 5.79 9.5 29 29 0 0 1 2.08 10.72 31.7 31.7 0 0 1-1.37 9.29 28.84 28.84 0 0 1-3.9 8.13 25.87 25.87 0 0 1-6.15 6.22 23.9 23.9 0 0 1-8 3.77l22.36 35.36H430.4L409.34 78H384.9v33.15zm11.7-43.55h28a13.73 13.73 0 0 0 6.51-1.6 15.64 15.64 0 0 0 5-4.23 20.49 20.49 0 0 0 3.25-6.17 22.88 22.88 0 0 0 1.17-7.28 19.71 19.71 0 0 0-1.36-7.32 21.54 21.54 0 0 0-3.64-6.12 16.51 16.51 0 0 0-5.33-4.16 14.51 14.51 0 0 0-6.43-1.49H384.9zm73.71 43.55v-92.3h11.7v92.3zm71.24.65a39.32 39.32 0 0 1-17.75-4 43.75 43.75 0 0 1-13.71-10.52 47.85 47.85 0 0 1-8.84-15A49.55 49.55 0 0 1 486.43 65a48 48 0 0 1 3.31-17.68 48.75 48.75 0 0 1 9.17-15A44.18 44.18 0 0 1 512.75 22a39.71 39.71 0 0 1 17.36-3.83 38 38 0 0 1 17.68 4.09A45.46 45.46 0 0 1 561.44 33a49.72 49.72 0 0 1 12 32.11 48 48 0 0 1-3.32 17.68 48.52 48.52 0 0 1-9.12 14.9A43.91 43.91 0 0 1 547.2 108a39.67 39.67 0 0 1-17.35 3.8zM498.26 65a41.31 41.31 0 0 0 2.27 13.58A37.47 37.47 0 0 0 507 90.22a31.07 31.07 0 0 0 10 8.06 28.18 28.18 0 0 0 13 3 27.21 27.21 0 0 0 13.26-3.19 32.34 32.34 0 0 0 9.94-8.31 37.3 37.3 0 0 0 6.24-11.64A41.65 41.65 0 0 0 561.57 65a41.16 41.16 0 0 0-2.28-13.59 36 36 0 0 0-6.5-11.56 32.33 32.33 0 0 0-10-8 29.32 29.32 0 0 0-26.06.13 32 32 0 0 0-10 8.19 37.35 37.35 0 0 0-6.3 11.57A40.72 40.72 0 0 0 498.26 65zm178.48-26.78a19.28 19.28 0 0 0-4.16-3.51 36.46 36.46 0 0 0-5.85-3.06 41.65 41.65 0 0 0-7.08-2.21 37.29 37.29 0 0 0-8-.84q-10.78 0-15.79 4a13.42 13.42 0 0 0-5 11 12.36 12.36 0 0 0 1.43 6.24 11.79 11.79 0 0 0 4.49 4.22 34.26 34.26 0 0 0 7.6 3.06q4.56 1.3 10.79 2.73a110.86 110.86 0 0 1 12.94 3.58 37.76 37.76 0 0 1 9.88 5 20 20 0 0 1 6.24 7.28 23.38 23.38 0 0 1 2.14 10.53 24 24 0 0 1-2.6 11.5 23.1 23.1 0 0 1-7.08 8.07 30.59 30.59 0 0 1-10.6 4.67 55.5 55.5 0 0 1-13.26 1.5 61.24 61.24 0 0 1-20.21-3.32 56.44 56.44 0 0 1-17.36-9.68l5.59-9.88a31.21 31.21 0 0 0 5.4 4.42 44.07 44.07 0 0 0 7.54 4 56 56 0 0 0 9.1 2.87 46.42 46.42 0 0 0 10.2 1.1q9.88 0 15.34-3.51t5.46-10.53a11.65 11.65 0 0 0-1.75-6.56 14.83 14.83 0 0 0-5.14-4.58 39.68 39.68 0 0 0-8.38-3.45q-5-1.48-11.38-3a114.87 114.87 0 0 1-12.35-3.64 33.62 33.62 0 0 1-8.9-4.68 17.67 17.67 0 0 1-5.4-6.63 22 22 0 0 1-1.82-9.36 26.49 26.49 0 0 1 2.47-11.7 24.67 24.67 0 0 1 6.89-8.58A30.13 30.13 0 0 1 638.65 20a47.94 47.94 0 0 1 13.26-1.75 46.44 46.44 0 0 1 30.29 10.48zm62.92 63.05q8.07 0 13.39-3.12a24.7 24.7 0 0 0 8.52-8.15 33.29 33.29 0 0 0 4.48-11.44 65.52 65.52 0 0 0 1.3-13.06V18.85h11.7v46.67a71.4 71.4 0 0 1-2.14 17.75A42.46 42.46 0 0 1 770.08 98a33.05 33.05 0 0 1-12.15 10.08q-7.48 3.69-18.14 3.7-11 0-18.59-3.9a33.73 33.73 0 0 1-12.15-10.34 41.84 41.84 0 0 1-6.63-14.82 73.09 73.09 0 0 1-2-17.22V18.85h11.7v46.67a64.12 64.12 0 0 0 1.37 13.33A33.49 33.49 0 0 0 718 90.22a24.57 24.57 0 0 0 8.45 8q5.29 3.05 13.21 3.05zm140.01 9.88V39.78L849 94.51h-6.63l-30.82-54.73v71.37h-11.7v-92.3h12.35l33.41 59.93 33.54-59.93h12.22v92.3zm113.62 0V39.78l-30.68 54.73H956l-30.83-54.73v71.37h-11.7v-92.3h12.35l33.41 59.93 33.54-59.93H1005v92.3zm96.46-10.4v10.4h-62.66v-92.3h61.49v10.4h-49.79v29.9h43.29v9.75h-43.29v31.85zm15.99 10.4v-92.3h39.52a24.9 24.9 0 0 1 11.24 2.54 28.13 28.13 0 0 1 8.84 6.75 32.31 32.31 0 0 1 5.79 9.5 29 29 0 0 1 2.08 10.72 31.7 31.7 0 0 1-1.37 9.29 28.84 28.84 0 0 1-3.9 8.13 25.87 25.87 0 0 1-6.11 6.24 23.81 23.81 0 0 1-8 3.77l22.36 35.36h-13.26L1141.88 78h-24.44v33.15zm11.7-43.55h28A13.73 13.73 0 0 0 1152 66a15.64 15.64 0 0 0 5-4.23 20.49 20.49 0 0 0 3.25-6.17 22.88 22.88 0 0 0 1.17-7.28A19.71 19.71 0 0 0 1160 41a21.54 21.54 0 0 0-3.64-6.12 16.51 16.51 0 0 0-5.33-4.16 14.51 14.51 0 0 0-6.43-1.49h-27.17z" transform="translate(-.03 -.9)"/></g></g></svg>