<?xml version="1.0" encoding="utf-8"?>
<!-- Generator: Adobe Illustrator 16.0.0, SVG Export Plug-In . SVG Version: 6.00 Build 0)  -->
<!DOCTYPE svg PUBLIC "-//W3C//DTD SVG 1.1//EN" "http://www.w3.org/Graphics/SVG/1.1/DTD/svg11.dtd">
<svg version="1.1" id="Layer_1" xmlns="http://www.w3.org/2000/svg" xmlns:xlink="http://www.w3.org/1999/xlink" x="0px" y="0px"
	 width="75.5px" height="78px" viewBox="0 0 75.5 78" enable-background="new 0 0 75.5 78" xml:space="preserve">
<g>
	<path id="instagram-circle-icon_1_" fill="#3E739D" d="M54.858,23.283v4.425c0,0.709-0.575,1.284-1.285,1.284h-4.328
		c-0.71,0-1.285-0.575-1.285-1.284v-4.425c0-0.709,0.575-1.284,1.285-1.284h4.328C54.283,21.999,54.858,22.574,54.858,23.283z
		 M38.274,45.083c3.258,0,5.898-2.641,5.898-5.898c0-3.257-2.641-5.897-5.898-5.897s-5.898,2.641-5.898,5.897
		C32.376,42.442,35.017,45.083,38.274,45.083z M73.75,39c0,19.883-16.117,36-36,36c-19.882,0-36-16.117-36-36s16.118-36,36-36
		C57.633,3,73.75,19.117,73.75,39z M58.519,33.186H46.691c1.205,1.693,1.917,3.763,1.917,5.999c0,5.722-4.639,10.36-10.36,10.36
		c-5.721,0-10.359-4.639-10.359-10.36c0-2.236,0.711-4.306,1.917-5.999H18.031v18.156c0,4.422,3.586,8.007,8.008,8.007h24.472
		c4.423,0,8.008-3.585,8.008-8.007V33.186z M38.248,47.166c4.401,0,7.981-3.58,7.981-7.981c0-2.389-1.057-4.534-2.726-5.999
		c-0.586-0.513-1.246-0.941-1.964-1.269c-1.004-0.456-2.118-0.713-3.292-0.713c-1.173,0-2.287,0.257-3.292,0.713
		c-0.717,0.327-1.378,0.756-1.963,1.269c-1.669,1.465-2.726,3.61-2.726,5.999C30.268,43.586,33.848,47.166,38.248,47.166z
		 M58.519,26.658c0-4.422-3.586-8.007-8.008-8.007H28.629v10.095h-1.642V18.651h-0.948c-0.062,0-0.123,0.003-0.186,0.004v10.091
		h-1.642v-9.883c-0.397,0.093-0.784,0.215-1.156,0.364v9.519h-1.642v-8.622c-2.046,1.45-3.383,3.835-3.383,6.534v5.259h12.837
		c1.879-1.907,4.49-3.092,7.38-3.092s5.501,1.185,7.381,3.092h12.889L58.519,26.658L58.519,26.658z"/>
</g>
</svg>
