<?xml version="1.0" encoding="utf-8"?>
<!-- Generator: Adobe Illustrator 16.0.0, SVG Export Plug-In . SVG Version: 6.00 Build 0)  -->
<!DOCTYPE svg PUBLIC "-//W3C//DTD SVG 1.1//EN" "http://www.w3.org/Graphics/SVG/1.1/DTD/svg11.dtd">
<svg version="1.1" id="Layer_1" xmlns="http://www.w3.org/2000/svg" xmlns:xlink="http://www.w3.org/1999/xlink" x="0px" y="0px"
	 width="74.532px" height="77px" viewBox="319.5 1092.5 74.532 77" enable-background="new 319.5 1092.5 74.532 77"
	 xml:space="preserve">
<g>
	<path id="linkedin-circle-icon_2_" fill="#0375B6" d="M356.766,1094c-19.882,0-35.999,16.117-35.999,36s16.117,36,35.999,36
		c19.883,0,36-16.117,36-36S376.648,1094,356.766,1094z M347.161,1147.404h-7.904v-25.536h7.904V1147.404z M343.171,1118.524
		c-2.581,0-4.674-2.11-4.674-4.712c0-2.603,2.093-4.712,4.674-4.712c2.582,0,4.675,2.109,4.675,4.712
		C347.846,1116.414,345.753,1118.524,343.171,1118.524z M376.782,1147.404h-7.866c0,0,0-9.728,0-13.404s-1.396-5.729-4.304-5.729
		c-3.163,0-4.816,2.138-4.816,5.729c0,3.933,0,13.404,0,13.404h-7.581v-25.536h7.581v3.439c0,0,2.28-4.219,7.695-4.219
		s9.291,3.307,9.291,10.146S376.782,1147.404,376.782,1147.404z"/>
</g>
</svg>
