<?xml version="1.0" encoding="utf-8"?>
<!-- Generator: Adobe Illustrator 16.0.0, SVG Export Plug-In . SVG Version: 6.00 Build 0)  -->
<!DOCTYPE svg PUBLIC "-//W3C//DTD SVG 1.1//EN" "http://www.w3.org/Graphics/SVG/1.1/DTD/svg11.dtd">
<svg version="1.1" id="Layer_1" xmlns="http://www.w3.org/2000/svg" xmlns:xlink="http://www.w3.org/1999/xlink" x="0px" y="0px"
	 width="105px" height="112px" viewBox="194.524 448 105 112" enable-background="new 194.524 448 105 112" xml:space="preserve">
<g id="Layer_1_1_">
	<path fill="none" stroke="#00703C" stroke-miterlimit="10" d="M202.705,469"/>
	<path fill="#D5A00E" d="M263.14,526.725c0.511,0.541,0.317,1.555-0.435,2.267l0,0c-0.752,0.712-1.773,0.85-2.285,0.31
		l-18.316-20.259c-0.512-0.539-0.748-1.084,0.004-1.795l0,0c0.751-0.712,1.514-0.349,2.023,0.19L263.14,526.725z"/>
	<path fill="#00703C" d="M241.627,508.625"/>
	<path fill="none" stroke="#D5A00E" stroke-width="2" stroke-miterlimit="10" d="M236.32,487.022
		c4.856,6.451,7.176,16.621,6.86,21.603c-5.86-0.136-13.445-4.399-21.503-10.499c-7.191-5.444-7.43-11.241-1.479-16.07
		C226.147,477.227,230.88,479.797,236.32,487.022z"/>
	<path fill="#00703C" d="M293.538,473.5c0,0-6.736,22.667-18.736,41.167s-23.168,36.64-24.838,36.64
		C249.963,551.307,293.575,520.333,293.538,473.5z"/>
	<path fill="#00703C" d="M201.295,473.5c0,0,6.737,22.667,18.737,41.167s23.167,36.641,24.837,36.641
		C244.87,551.307,201.258,520.333,201.295,473.5z"/>
	<path fill="#00703C" d="M290.027,469c0,0-36.319-3.811-43.229-3.678c-22.047,0.424-40.998,3.112-41.842,4.553
		C204.955,469.875,239.456,445,290.027,469z"/>
	<path fill="#D5A00E" d="M232.941,525.725c-0.511,0.541-0.317,1.555,0.434,2.267l0,0c0.752,0.712,1.774,0.85,2.285,0.31
		l18.317-20.259c0.512-0.539,0.748-1.084-0.004-1.795l0,0c-0.751-0.712-1.514-0.349-2.023,0.19L232.941,525.725z"/>
	<path fill="#00703C" d="M254.454,507.625"/>
	<path fill="none" stroke="#D5A00E" stroke-width="2" stroke-miterlimit="10" d="M259.76,486.022
		c-4.855,6.451-7.178,16.621-6.859,21.603c5.859-0.136,13.443-4.399,21.504-10.499c7.189-5.444,7.43-11.241,1.479-16.07
		C269.933,476.227,265.2,478.797,259.76,486.022z"/>
	<circle fill="#00703C" cx="247.204" cy="486.791" r="3.333"/>
</g>
<g id="Layer_1_2_">
	<path fill="none" stroke="#00703C" stroke-miterlimit="10" d="M4258.706,4558"/>
	<path fill="#D5A00E" d="M4319.14,4615.725c0.511,0.541,0.317,1.555-0.435,2.267l0,0c-0.752,0.712-1.773,0.85-2.285,0.31
		l-18.316-20.259c-0.512-0.539-0.748-1.084,0.004-1.795l0,0c0.751-0.712,1.514-0.349,2.023,0.19L4319.14,4615.725z"/>
	<path fill="#00703C" d="M4297.627,4597.625"/>
	<path fill="none" stroke="#D5A00E" stroke-width="2" stroke-miterlimit="10" d="M4292.321,4576.022
		c4.855,6.451,7.176,16.621,6.859,21.603c-5.859-0.136-13.445-4.399-21.504-10.499c-7.19-5.444-7.43-11.241-1.479-16.07
		C4282.147,4566.227,4286.879,4568.797,4292.321,4576.022z"/>
	<path fill="#00703C" d="M4349.538,4562.5c0,0-6.736,22.667-18.736,41.167s-23.168,36.64-24.838,36.64
		C4305.963,4640.307,4349.575,4609.333,4349.538,4562.5z"/>
	<path fill="#00703C" d="M4257.295,4562.5c0,0,6.736,22.667,18.736,41.167s23.168,36.641,24.838,36.641
		C4300.87,4640.307,4257.258,4609.333,4257.295,4562.5z"/>
	<path fill="#00703C" d="M4346.027,4558c0,0-36.319-3.811-43.229-3.678c-22.047,0.424-40.998,3.112-41.842,4.553
		C4260.956,4558.875,4295.456,4534,4346.027,4558z"/>
	<path fill="#D5A00E" d="M4288.941,4614.725c-0.511,0.541-0.317,1.555,0.435,2.267l0,0c0.752,0.712,1.773,0.85,2.285,0.31
		l18.316-20.259c0.512-0.539,0.748-1.084-0.004-1.795l0,0c-0.751-0.712-1.514-0.349-2.023,0.19L4288.941,4614.725z"/>
	<path fill="#00703C" d="M4310.454,4596.625"/>
	<path fill="none" stroke="#D5A00E" stroke-width="2" stroke-miterlimit="10" d="M4315.76,4575.022
		c-4.855,6.451-7.178,16.621-6.859,21.603c5.859-0.136,13.443-4.399,21.504-10.499c7.189-5.444,7.43-11.241,1.479-16.07
		C4325.933,4565.227,4321.2,4567.797,4315.76,4575.022z"/>
	<circle fill="#00703C" cx="4303.204" cy="4575.791" r="3.333"/>
</g>
</svg>
