<?xml version="1.0" encoding="utf-8"?>
<!-- Generator: Adobe Illustrator 16.0.0, SVG Export Plug-In . SVG Version: 6.00 Build 0)  -->
<!DOCTYPE svg PUBLIC "-//W3C//DTD SVG 1.1//EN" "http://www.w3.org/Graphics/SVG/1.1/DTD/svg11.dtd">
<svg version="1.1" id="Layer_1" xmlns="http://www.w3.org/2000/svg" xmlns:xlink="http://www.w3.org/1999/xlink" x="0px" y="0px"
	 width="75.5px" height="78px" viewBox="100 1091.5 75.5 78" enable-background="new 100 1091.5 75.5 78" xml:space="preserve">
<g>
	<path id="twitter-4-icon_2_" fill="#4DC8F1" stroke="#FFFFFF" stroke-miterlimit="10" d="M138.5,1092.5c-19.882,0-36,16.117-36,36
		s16.118,36,36,36c19.883,0,36-16.117,36-36S158.383,1092.5,138.5,1092.5z M156.605,1122.297
		c0.527,11.744-8.23,24.838-23.733,24.838c-4.715,0-9.104-1.383-12.799-3.752c4.43,0.522,8.852-0.706,12.361-3.458
		c-3.653-0.067-6.737-2.48-7.799-5.798c1.308,0.25,2.595,0.177,3.77-0.143c-4.016-0.808-6.787-4.425-6.697-8.293
		c1.126,0.625,2.414,1.001,3.783,1.044c-3.719-2.484-4.771-7.395-2.584-11.147c4.117,5.052,10.27,8.376,17.209,8.725
		c-1.217-5.224,2.745-10.253,8.134-10.253c2.402,0,4.572,1.014,6.095,2.637c1.901-0.374,3.688-1.069,5.302-2.026
		c-0.623,1.95-1.947,3.587-3.671,4.619c1.688-0.201,3.298-0.65,4.796-1.314C159.652,1119.649,158.236,1121.12,156.605,1122.297z"/>
</g>
</svg>
